<svg width="30" height="30" viewBox="0 0 30 30" fill="none" xmlns="http://www.w3.org/2000/svg">
<path fill-rule="evenodd" clip-rule="evenodd" d="M15 26.25C8.78635 26.25 3.75 21.2136 3.75 15C3.75 8.78635 8.78635 3.75 15 3.75C21.2136 3.75 26.25 8.78635 26.25 15C26.25 21.2136 21.2136 26.25 15 26.25Z" stroke="white" stroke-width="1.5" stroke-linecap="round" stroke-linejoin="round"/>
<path d="M21.7297 23.8719C21.7297 23.8719 19.0077 16.369 26.2504 14.9995" stroke="white" stroke-width="1.5" stroke-linecap="round" stroke-linejoin="round"/>
<path d="M25.1401 10.1094C23.9701 10.0279 21.8393 10.3782 18.7136 12.6257C14.9919 15.3063 14.1369 9.64117 15.3191 3.76562" stroke="white" stroke-width="1.5" stroke-linecap="round" stroke-linejoin="round"/>
<path d="M14.4927 26.2502C14.4927 26.2502 15.259 23.0796 13.0661 21.3647C10.8733 19.6509 9.23506 19.7763 8.96263 17.5968C8.69019 15.4173 11.3805 15.0513 9.41263 11.8076C8.11371 9.66585 6.64696 8.32558 6.70168 7.43896" stroke="white" stroke-width="1.5" stroke-linecap="round" stroke-linejoin="round"/>
</svg>
