<svg width="16" height="16" viewBox="0 0 16 16" fill="none" xmlns="http://www.w3.org/2000/svg">
<path fill-rule="evenodd" clip-rule="evenodd" d="M10.8606 14.7505H5.34562C3.195 14.7505 1.75 13.2411 1.75 10.9948V5.79858C1.75 3.55233 3.195 2.04295 5.34562 2.04295H7.6825C7.94125 2.04295 8.15125 2.25295 8.15125 2.5117C8.15125 2.77045 7.94125 2.98045 7.6825 2.98045H5.34562C3.73062 2.98045 2.6875 4.0867 2.6875 5.79858V10.9948C2.6875 12.7067 3.73062 13.813 5.34562 13.813H10.8606C12.4756 13.813 13.5194 12.7067 13.5194 10.9948V8.47733C13.5194 8.21858 13.7294 8.00858 13.9881 8.00858C14.2469 8.00858 14.4569 8.21858 14.4569 8.47733V10.9948C14.4569 13.2411 13.0112 14.7505 10.8606 14.7505" fill="#F07E26"/>
<path fill-rule="evenodd" clip-rule="evenodd" d="M6.04199 10.4127H7.90262C8.14012 10.4127 8.36262 10.3208 8.53074 10.1527L13.2239 5.45957C13.4164 5.26707 13.5226 5.01082 13.5226 4.73832C13.5226 4.4652 13.4164 4.20832 13.2239 4.01582L12.4632 3.2552C12.0651 2.85832 11.4176 2.85832 11.0189 3.2552L6.34824 7.92582C6.18637 8.0877 6.09449 8.3027 6.08887 8.53082L6.04199 10.4127ZM7.90292 11.3502H5.56167C5.43542 11.3502 5.31417 11.299 5.22604 11.2083C5.13792 11.1183 5.08979 10.9965 5.09292 10.8696L5.15167 8.5077C5.16354 8.0377 5.35292 7.59583 5.68542 7.2627H5.68604L10.3567 2.59208C11.1204 1.82958 12.3623 1.82958 13.126 2.59208L13.8867 3.3527C14.2573 3.7227 14.461 4.21458 14.4604 4.73833C14.4604 5.26208 14.2567 5.75333 13.8867 6.1227L9.19354 10.8158C8.84917 11.1602 8.39042 11.3502 7.90292 11.3502V11.3502Z" fill="#F07E26"/>
<path fill-rule="evenodd" clip-rule="evenodd" d="M12.8321 6.96788C12.7121 6.96788 12.5921 6.92226 12.5009 6.83038L9.64711 3.97663C9.46398 3.79351 9.46398 3.49663 9.64711 3.31351C9.83023 3.13038 10.1265 3.13038 10.3096 3.31351L13.1634 6.16788C13.3465 6.35101 13.3465 6.64726 13.1634 6.83038C13.0721 6.92226 12.9521 6.96788 12.8321 6.96788" fill="#F07E26"/>
</svg>
