<svg width="24" height="24" viewBox="0 0 24 24" fill="none" xmlns="http://www.w3.org/2000/svg">
<path fill-rule="evenodd" clip-rule="evenodd" d="M15.6751 16.9732L14.8658 17.1093C14.2738 17.2081 13.7508 16.7149 13.8161 16.1182L13.9055 15.2829C13.9494 14.8801 14.1181 14.5016 14.3885 14.1986L17.5732 10.6912C17.99 10.241 18.693 10.2139 19.1423 10.6306L19.8863 11.3196C20.3366 11.7354 20.3637 12.4384 19.9469 12.8888L16.8004 16.3532C16.5067 16.6823 16.1095 16.9004 15.6751 16.9732Z" stroke="#A2A2A2" stroke-width="1.44" stroke-linecap="round" stroke-linejoin="round"/>
<path d="M14.1751 19.562H5.13929C3.78826 19.562 2.97185 18.6853 2.91406 17.4643C2.91406 14.979 5.6041 14.1217 9.65724 14.0928C10.1079 14.097 10.5418 14.1114 10.9571 14.1369" stroke="#A2A2A2" stroke-width="1.44" stroke-miterlimit="10" stroke-linecap="round"/>
<path d="M9.66258 11.2559C11.5447 11.2559 13.0703 9.73015 13.0703 7.84813C13.0703 5.96611 11.5447 4.44043 9.66258 4.44043C7.78057 4.44043 6.25488 5.96611 6.25488 7.84813C6.25488 9.73015 7.78057 11.2559 9.66258 11.2559Z" stroke="#A2A2A2" stroke-width="1.44" stroke-miterlimit="10"/>
</svg>
