<svg width="24" height="25" viewBox="0 0 24 25" fill="none" xmlns="http://www.w3.org/2000/svg">
<path fill-rule="evenodd" clip-rule="evenodd" d="M15.6751 17.2432L14.8658 17.3793C14.2738 17.4781 13.7508 16.985 13.8161 16.3882L13.9055 15.5529C13.9494 15.1501 14.1181 14.7716 14.3885 14.4686L17.5732 10.9612C17.99 10.511 18.693 10.4839 19.1423 10.9007L19.8863 11.5897C20.3366 12.0054 20.3637 12.7084 19.9469 13.1588L16.8004 16.6232C16.5067 16.9523 16.1095 17.1704 15.6751 17.2432Z" stroke="#F07E26" stroke-width="1.44" stroke-linecap="round" stroke-linejoin="round"/>
<path d="M14.1751 19.832H5.13929C3.78826 19.832 2.97185 18.9553 2.91406 17.7343C2.91406 15.2491 5.6041 14.3917 9.65724 14.3628C10.1079 14.367 10.5418 14.3814 10.9571 14.407" stroke="#F07E26" stroke-width="1.44" stroke-miterlimit="10" stroke-linecap="round"/>
<path d="M9.66258 11.5259C11.5447 11.5259 13.0703 10.0002 13.0703 8.11815C13.0703 6.23613 11.5447 4.71045 9.66258 4.71045C7.78057 4.71045 6.25488 6.23613 6.25488 8.11815C6.25488 10.0002 7.78057 11.5259 9.66258 11.5259Z" stroke="#F07E26" stroke-width="1.44" stroke-miterlimit="10"/>
</svg>
