<svg version="1.1" xmlns="http://www.w3.org/2000/svg" xmlns:xlink="http://www.w3.org/1999/xlink" width="20" height="21" viewBox="0,0,243.79688,256"><g fill="none" fill-rule="evenodd" stroke="#ffffff" stroke-width="1.5" stroke-linecap="round" stroke-linejoin="round" stroke-miterlimit="10" stroke-dasharray="" stroke-dashoffset="0" font-family="none" font-weight="none" font-size="none" text-anchor="none" style="mix-blend-mode: normal"><g transform="translate(1.56875,-1.96041) scale(12.19048,12.19048)"><path d="M9.87074,18.6866c-3.07647,0 -5.70375,-0.4788 -5.70375,-2.396c0,-1.9173 2.61061,-3.6873 5.70375,-3.6873c3.07656,0 5.70386,1.7528 5.70386,3.6701c0,1.9165 -2.6106,2.4132 -5.70386,2.4132z"></path><path d="M9.86405,9.94643c2.01895,0 3.65535,-1.6364 3.65535,-3.65534c0,-2.01894 -1.6364,-3.65606 -3.65535,-3.65606c-2.0189,0 -3.65602,1.63712 -3.65602,3.65606c-0.00682,2.01212 1.61818,3.6485 3.63027,3.65534c0.00908,0 0.01741,0 0.02575,0z"></path></g></g></svg>