<svg width="22" height="19" viewBox="0 0 22 19" fill="none" xmlns="http://www.w3.org/2000/svg">
<path d="M10.998 17.52C10.998 17.52 1.62305 12.27 1.62305 5.89503C1.62305 4.76805 2.01351 3.67587 2.728 2.80433C3.4425 1.93279 4.43688 1.33572 5.54198 1.1147C6.64708 0.893677 7.79462 1.06237 8.78936 1.59206C9.7841 2.12176 10.5646 2.97974 10.998 4.02003C11.4315 2.97974 12.212 2.12176 13.2067 1.59206C14.2015 1.06237 15.349 0.893677 16.4541 1.1147C17.5592 1.33572 18.5536 1.93279 19.2681 2.80433C19.9826 3.67587 20.373 4.76805 20.373 5.89503C20.373 12.27 10.998 17.52 10.998 17.52Z" stroke="#F07E26" stroke-width="2" stroke-linecap="round" stroke-linejoin="round"/>
</svg>
