<svg width="20" height="21" viewBox="0 0 20 21" fill="none" xmlns="http://www.w3.org/2000/svg">
<path fill-rule="evenodd" clip-rule="evenodd" d="M9.87074 18.6866C6.79427 18.6866 4.16699 18.2078 4.16699 16.2906C4.16699 14.3733 6.7776 12.6033 9.87074 12.6033C12.9473 12.6033 15.5746 14.3561 15.5746 16.2734C15.5746 18.1899 12.964 18.6866 9.87074 18.6866Z" stroke="#302F2F" stroke-width="1.5" stroke-linecap="round" stroke-linejoin="round"/>
<path fill-rule="evenodd" clip-rule="evenodd" d="M9.86405 9.94643C11.883 9.94643 13.5194 8.31003 13.5194 6.29109C13.5194 4.27215 11.883 2.63503 9.86405 2.63503C7.84515 2.63503 6.20803 4.27215 6.20803 6.29109C6.20121 8.30321 7.82621 9.93959 9.8383 9.94643C9.84738 9.94643 9.85571 9.94643 9.86405 9.94643Z" stroke="#302F2F" stroke-width="1.5" stroke-linecap="round" stroke-linejoin="round"/>
</svg>
