<svg width="24" height="25" viewBox="0 0 24 25" fill="none" xmlns="http://www.w3.org/2000/svg">
<path fill-rule="evenodd" clip-rule="evenodd" d="M13.0588 5.381L14.8137 8.88788C14.9875 9.23348 15.3206 9.47156 15.7036 9.52532L19.63 10.0907C20.2665 10.1743 20.7139 10.7589 20.6304 11.3954C20.5958 11.6556 20.4739 11.8975 20.2848 12.0799L17.4451 14.8082C17.1657 15.0741 17.038 15.461 17.1052 15.8412L17.7772 19.6927C17.8809 20.3359 17.4432 20.9407 16.8 21.0444C16.5465 21.0847 16.2873 21.0415 16.0608 20.9215L12.5529 19.1033C12.2073 18.9247 11.7974 18.9247 11.4518 19.1033L7.94204 20.9224C7.367 21.2276 6.65373 21.0088 6.34845 20.4338C6.22845 20.2063 6.18523 19.9471 6.22651 19.6937L6.89853 15.8412C6.96477 15.462 6.83708 15.0751 6.55868 14.8092L3.71612 12.0809C3.25436 11.6354 3.23997 10.9001 3.68541 10.4373C3.86781 10.2482 4.10971 10.1263 4.37083 10.0917L8.29725 9.52628C8.68029 9.47252 9.0134 9.23444 9.18812 8.88884L10.9459 5.381C11.2483 4.79733 11.9664 4.56981 12.55 4.87221C12.768 4.98453 12.9456 5.16213 13.0588 5.381Z" stroke="#F07E26" stroke-width="1.44" stroke-linecap="round" stroke-linejoin="round"/>
</svg>
